<?xml version="1.0" standalone="no"?>
<!DOCTYPE svg PUBLIC "-//W3C//DTD SVG 20010904//EN"
 "http://www.w3.org/TR/2001/REC-SVG-20010904/DTD/svg10.dtd">
<svg version="1.0" xmlns="http://www.w3.org/2000/svg"
 width="700.000000pt" height="700.000000pt" viewBox="0 0 700.000000 700.000000"
 preserveAspectRatio="xMidYMid meet">
<metadata>
Created by potrace 1.14, written by Peter Selinger 2001-2017
</metadata>
<g transform="translate(0.000000,700.000000) scale(0.100000,-0.100000)"
fill="#000000" stroke="none">
<path d="M2858 6984 c-54 -29 -58 -50 -58 -319 l0 -245 -235 0 -235 0 0 190
c0 125 -4 198 -12 215 -26 58 27 55 -1157 55 l-1091 0 -32 -29 -33 -29 0 -522
0 -522 33 -29 32 -29 1091 0 c1184 0 1131 -3 1157 55 8 17 12 90 12 215 l0
190 235 0 235 0 0 -245 c0 -271 4 -291 60 -320 18 -9 56 -15 100 -15 l70 0 0
-234 0 -233 -56 -11 c-135 -28 -278 -136 -336 -254 -60 -122 -58 -85 -58
-1138 0 -1079 -3 -1033 71 -1156 67 -111 216 -215 331 -230 l48 -7 0 -293 0
-294 -99 -247 c-55 -137 -106 -261 -115 -278 -13 -25 -16 -71 -16 -277 l0
-248 -235 0 -235 0 0 198 c0 166 -3 201 -16 221 -37 53 -2 51 -1141 51 -712 0
-1070 -4 -1096 -11 -26 -7 -44 -21 -57 -42 -19 -31 -20 -54 -20 -530 0 -547
-1 -541 60 -572 26 -13 157 -15 1120 -13 l1090 3 27 28 28 27 5 203 5 202 233
3 232 2 0 -190 c0 -151 3 -197 15 -220 32 -61 15 -60 685 -60 670 0 653 -1
685 60 12 23 15 69 15 220 l0 190 233 -2 232 -3 5 -202 5 -203 28 -27 27 -28
1090 -3 c963 -2 1094 0 1120 13 61 31 60 26 60 569 0 353 -3 502 -12 520 -6
14 -23 34 -37 43 -24 17 -93 18 -1096 21 -741 2 -1081 0 -1107 -8 -20 -6 -46
-22 -57 -37 -20 -24 -21 -39 -21 -224 l0 -199 -235 0 -235 0 0 248 c0 206 -3
252 -16 277 -9 17 -60 141 -115 278 l-99 247 0 294 0 293 53 6 c30 4 85 23
133 47 130 64 221 176 259 321 23 83 22 1968 0 2054 -47 177 -204 324 -385
357 l-60 12 0 233 0 233 70 0 c44 0 82 6 100 15 56 29 60 49 60 320 l0 245
235 0 235 0 0 -190 c0 -125 4 -198 12 -215 26 -58 -27 -55 1157 -55 l1091 0
32 29 33 29 0 522 0 522 -33 29 -32 29 -1090 0 c-823 0 -1095 -3 -1115 -12
-49 -22 -55 -50 -55 -258 l0 -190 -235 0 -235 0 0 245 c0 271 -4 291 -60 320
-43 22 -1241 22 -1282 -1z m522 -456 c0 -278 5 -298 74 -332 36 -17 43 -18 79
-5 22 8 50 27 61 42 20 27 21 43 24 283 l3 254 172 -2 172 -3 0 -465 0 -465
-465 0 -465 0 -3 455 c-1 250 0 461 3 468 3 9 48 12 175 12 l170 0 0 -242z
m-2680 7 l0 -115 -235 0 -235 0 0 115 0 115 235 0 235 0 0 -115z m700 0 l0
-115 -235 0 -235 0 0 115 0 115 235 0 235 0 0 -115z m700 0 l0 -115 -235 0
-235 0 0 115 0 115 235 0 235 0 0 -115z m3270 0 l0 -115 -235 0 -235 0 0 115
0 115 235 0 235 0 0 -115z m700 0 l0 -115 -235 0 -235 0 0 115 0 115 235 0
235 0 0 -115z m700 0 l0 -115 -235 0 -235 0 0 115 0 115 235 0 235 0 0 -115z
m-6070 -470 l0 -115 -235 0 -235 0 0 115 0 115 235 0 235 0 0 -115z m700 0 l0
-115 -235 0 -235 0 0 115 0 115 235 0 235 0 0 -115z m700 0 l0 -115 -235 0
-235 0 0 115 0 115 235 0 235 0 0 -115z m3270 0 l0 -115 -235 0 -235 0 0 115
0 115 235 0 235 0 0 -115z m700 0 l0 -115 -235 0 -235 0 0 115 0 115 235 0
235 0 0 -115z m700 0 l0 -115 -235 0 -235 0 0 115 0 115 235 0 235 0 0 -115z
m-3040 -700 l0 -235 -230 0 -230 0 0 235 0 235 230 0 230 0 0 -235z m276 -480
c64 -19 113 -60 149 -126 l30 -54 0 -965 0 -965 -24 -48 c-13 -26 -42 -63 -64
-82 -77 -66 -79 -66 -623 -63 -483 3 -490 3 -530 25 -23 12 -58 41 -77 64 -70
81 -67 30 -67 1064 0 1061 -4 1002 80 1086 78 78 75 78 611 78 382 1 474 -2
515 -14z m-276 -2785 l0 -230 -230 0 -230 0 0 230 0 230 230 0 230 0 0 -230z
m106 -635 c35 -88 64 -165 64 -172 0 -10 -82 -13 -400 -13 -319 0 -400 3 -400
13 0 7 25 76 56 152 31 77 60 150 65 163 l9 22 271 -2 271 -3 64 -160z m132
-822 l-3 -408 -172 -3 -172 -2 -3 254 c-3 240 -4 256 -24 283 -11 15 -39 34
-61 42 -36 13 -43 12 -79 -5 -69 -34 -74 -54 -74 -332 l0 -242 -172 2 -173 3
-3 408 -2 407 470 0 470 0 -2 -407z m-3268 172 l0 -115 -235 0 -235 0 0 115 0
115 235 0 235 0 0 -115z m700 0 l0 -115 -235 0 -235 0 0 115 0 115 235 0 235
0 0 -115z m700 0 l0 -115 -235 0 -235 0 0 115 0 115 235 0 235 0 0 -115z
m3270 0 l0 -115 -235 0 -235 0 0 115 0 115 235 0 235 0 0 -115z m700 0 l0
-115 -235 0 -235 0 0 115 0 115 235 0 235 0 0 -115z m700 0 l0 -115 -235 0
-235 0 0 115 0 115 235 0 235 0 0 -115z m-6070 -465 l0 -120 -232 2 -233 3 -3
104 c-1 58 0 111 2 118 4 10 54 13 236 13 l230 0 0 -120z m700 0 l0 -120 -232
2 -233 3 -3 104 c-1 58 0 111 2 118 4 10 54 13 236 13 l230 0 0 -120z m700 0
l0 -120 -232 2 -233 3 -3 104 c-1 58 0 111 2 118 4 10 54 13 236 13 l230 0 0
-120z m3265 0 l0 -115 -232 -3 -233 -2 0 120 0 120 233 -2 232 -3 0 -115z
m700 0 l0 -115 -232 -3 -233 -2 0 120 0 120 233 -2 232 -3 0 -115z m700 0 l0
-115 -232 -3 -233 -2 0 120 0 120 233 -2 232 -3 0 -115z"/>
<path d="M3100 4652 c-74 -37 -71 14 -68 -932 3 -788 4 -847 21 -871 32 -48
44 -49 447 -49 403 0 415 1 447 49 17 24 18 83 21 871 2 790 1 847 -15 880
-35 69 -44 70 -453 70 -327 0 -369 -2 -400 -18z m630 -512 l0 -290 -230 0
-230 0 0 290 0 290 230 0 230 0 0 -290z m0 -815 l0 -295 -230 0 -230 0 0 295
0 295 230 0 230 0 0 -295z"/>
<path d="M1104 5232 c-36 -23 -51 -56 -58 -136 -3 -37 -16 -83 -36 -122 -55
-112 -152 -175 -291 -189 -35 -4 -75 -14 -87 -22 -32 -20 -55 -77 -46 -116 14
-67 53 -97 123 -97 22 0 69 -9 107 -21 57 -18 77 -31 130 -83 52 -53 65 -73
83 -130 12 -38 21 -85 21 -107 0 -70 30 -109 97 -123 39 -9 96 14 116 46 8 12
18 52 22 87 19 186 142 313 316 328 35 3 76 12 91 20 62 31 75 130 25 181 -19
19 -43 27 -108 37 -101 15 -170 46 -225 100 -55 55 -84 120 -99 222 -10 67
-18 90 -38 110 -34 34 -101 41 -143 15z m118 -621 l-57 -56 -55 55 -55 55 55
56 55 56 56 -55 57 -54 -56 -57z"/>
<path d="M4940 5103 c-39 -35 -50 -95 -26 -141 53 -102 216 -66 216 48 0 79
-41 120 -119 120 -30 0 -49 -7 -71 -27z"/>
<path d="M6340 3703 c-86 -77 -21 -215 94 -200 78 11 119 95 84 172 -27 59
-126 75 -178 28z"/>
<path d="M390 3353 c-86 -77 -21 -215 94 -200 78 11 119 95 84 172 -27 59
-126 75 -178 28z"/>
<path d="M5638 3001 l-33 -29 -3 -120 -4 -119 -141 -141 -142 -141 -118 -3
-119 -3 -29 -33 c-32 -36 -39 -90 -17 -137 20 -44 56 -55 175 -55 l108 0 143
-143 142 -142 0 -108 c0 -141 14 -169 98 -192 32 -9 88 12 112 42 17 22 20 41
20 142 l0 116 143 143 142 142 116 0 c101 0 120 3 142 20 30 24 51 80 42 112
-23 84 -51 98 -192 98 l-108 0 -143 143 -142 142 0 107 c0 62 -5 118 -12 133
-27 61 -126 74 -180 26z m170 -758 l-93 -93 -92 92 -93 93 92 92 93 93 92 -92
93 -93 -92 -92z"/>
<path d="M2050 1853 c-95 -49 -83 -183 20 -214 53 -16 107 10 134 65 17 36 18
43 5 79 -25 71 -96 102 -159 70z"/>
</g>
</svg>
